# xmcd
#
# Track frame offsets: 
#        183
#        10185
#        21103
#        33608
#        43773
#        53708
#        64678
#        74885
#        86963
#        100480
#        112865
#        143848
#        160133
#        172493
#        186418
#        199100
#
# Disc length: 2818 seconds
#
# Revision: 2
# Processed by: cddbd v1.5.2PL0 Copyright (c) Steve Scherf et al.
# Submitted via: ExactAudioCopy v0.99pb5
#
DISCID=ef0b0010
DTITLE=John Lee Hooker - Dimples [Classic Blues]
DYEAR=1994
DGENRE=Blues
TTITLE0=Dimples
TTITLE1=Maudie
TTITLE2=Crawlin' King Snake
TTITLE3=I wanna walk
TTITLE4=Run on
TTITLE5=No shoes
TTITLE6=Want ad blues
TTITLE7=I'm mad again
TTITLE8=Stella Mae
TTITLE9=I'm in the mood
TTITLE10=Let's go out tonight
TTITLE11=Peace lovin' man
TTITLE12=Walkin' the boogie
TTITLE13=Louise
TTITLE14=Leave my wife alone
TTITLE15=High priced woman
EXTD=
EXTT0=
EXTT1=
EXTT2=
EXTT3=
EXTT4=
EXTT5=
EXTT6=
EXTT7=
EXTT8=
EXTT9=
EXTT10=
EXTT11=
EXTT12=
EXTT13=
EXTT14=
EXTT15=
PLAYORDER=
